<svg width="101" height="13" viewBox="0 0 101 13" fill="none" xmlns="http://www.w3.org/2000/svg">
<path d="M0.184 12.5V1.14H7.816V3.076H2.392V6.004H6.904V7.796H2.392V12.5H0.184ZM8.73975 9.364V4.116H10.8838V8.9C10.8838 10.1907 11.3478 10.836 12.2758 10.836C12.6918 10.836 13.0918 10.7133 13.4758 10.468C13.8704 10.212 14.1904 9.828 14.4358 9.316V4.116H16.5798V10.1C16.5798 10.3347 16.6171 10.5 16.6918 10.596C16.7664 10.6813 16.8998 10.7347 17.0918 10.756V12.5C16.8784 12.5427 16.6971 12.5693 16.5478 12.58C16.4091 12.5907 16.2811 12.596 16.1638 12.596C15.7798 12.596 15.4651 12.5107 15.2198 12.34C14.9851 12.1587 14.8464 11.9133 14.8038 11.604L14.7558 10.932C14.3824 11.508 13.9024 11.94 13.3158 12.228C12.7291 12.516 12.0838 12.66 11.3798 12.66C10.5158 12.66 9.85975 12.3827 9.41175 11.828C8.96375 11.2627 8.73975 10.4413 8.73975 9.364ZM18.6944 0.82H20.8384V9.812C20.8384 10.2067 20.9024 10.468 21.0304 10.596C21.1584 10.724 21.3344 10.788 21.5584 10.788C21.729 10.788 21.905 10.7667 22.0864 10.724C22.2677 10.6813 22.4277 10.628 22.5664 10.564L22.8544 12.196C22.5664 12.3347 22.2304 12.4413 21.8464 12.516C21.4624 12.5907 21.1157 12.628 20.8064 12.628C20.1344 12.628 19.6117 12.452 19.2384 12.1C18.8757 11.7373 18.6944 11.2253 18.6944 10.564V0.82ZM23.2125 10.02C23.2125 9.476 23.3618 9.00133 23.6605 8.596C23.9698 8.18 24.3965 7.86 24.9405 7.636C25.4845 7.412 26.1085 7.3 26.8125 7.3C27.1645 7.3 27.5218 7.332 27.8845 7.396C28.2472 7.44933 28.5618 7.52933 28.8285 7.636V7.188C28.8285 6.65467 28.6685 6.244 28.3485 5.956C28.0392 5.668 27.5752 5.524 26.9565 5.524C26.4978 5.524 26.0605 5.604 25.6445 5.764C25.2285 5.924 24.7912 6.15867 24.3325 6.468L23.6445 5.06C24.1992 4.69733 24.7645 4.42533 25.3405 4.244C25.9272 4.06267 26.5405 3.972 27.1805 3.972C28.3752 3.972 29.3032 4.27067 29.9645 4.868C30.6365 5.46533 30.9725 6.31867 30.9725 7.428V10.1C30.9725 10.3347 31.0098 10.5 31.0845 10.596C31.1592 10.6813 31.2925 10.7347 31.4845 10.756V12.5C31.2925 12.5427 31.1165 12.5693 30.9565 12.58C30.8072 12.6013 30.6792 12.612 30.5725 12.612C30.1458 12.612 29.8205 12.516 29.5965 12.324C29.3725 12.132 29.2392 11.8973 29.1965 11.62L29.1485 11.188C28.7752 11.668 28.3165 12.036 27.7725 12.292C27.2392 12.5373 26.6898 12.66 26.1245 12.66C25.5592 12.66 25.0578 12.548 24.6205 12.324C24.1832 12.0893 23.8365 11.7747 23.5805 11.38C23.3352 10.9747 23.2125 10.5213 23.2125 10.02ZM28.4285 10.452C28.6952 10.196 28.8285 9.95067 28.8285 9.716V8.868C28.2738 8.644 27.7138 8.532 27.1485 8.532C26.5832 8.532 26.1245 8.65467 25.7725 8.9C25.4205 9.13467 25.2445 9.44933 25.2445 9.844C25.2445 10.164 25.3725 10.452 25.6285 10.708C25.8845 10.964 26.2525 11.092 26.7325 11.092C27.0525 11.092 27.3618 11.0333 27.6605 10.916C27.9698 10.7987 28.2258 10.644 28.4285 10.452ZM40.768 12.5H38.624V7.796C38.624 7.124 38.5067 6.63333 38.272 6.324C38.0373 6.01467 37.712 5.86 37.296 5.86C37.008 5.86 36.7147 5.93467 36.416 6.084C36.128 6.23333 35.8667 6.44133 35.632 6.708C35.3973 6.964 35.2267 7.26267 35.12 7.604V12.5H32.976V4.116H34.912V5.668C35.2213 5.14533 35.6693 4.73467 36.256 4.436C36.8427 4.12667 37.504 3.972 38.24 3.972C38.7627 3.972 39.1893 4.068 39.52 4.26C39.8507 4.44133 40.1067 4.692 40.288 5.012C40.4693 5.32133 40.592 5.67333 40.656 6.068C40.7307 6.46267 40.768 6.86267 40.768 7.268V12.5ZM42.0563 10.02C42.0563 9.476 42.2056 9.00133 42.5043 8.596C42.8136 8.18 43.2403 7.86 43.7843 7.636C44.3283 7.412 44.9523 7.3 45.6562 7.3C46.0083 7.3 46.3656 7.332 46.7283 7.396C47.0909 7.44933 47.4056 7.52933 47.6723 7.636V7.188C47.6723 6.65467 47.5123 6.244 47.1923 5.956C46.8829 5.668 46.4189 5.524 45.8003 5.524C45.3416 5.524 44.9043 5.604 44.4883 5.764C44.0723 5.924 43.6349 6.15867 43.1763 6.468L42.4883 5.06C43.0429 4.69733 43.6083 4.42533 44.1843 4.244C44.7709 4.06267 45.3843 3.972 46.0243 3.972C47.2189 3.972 48.1469 4.27067 48.8083 4.868C49.4803 5.46533 49.8163 6.31867 49.8163 7.428V10.1C49.8163 10.3347 49.8536 10.5 49.9283 10.596C50.0029 10.6813 50.1363 10.7347 50.3283 10.756V12.5C50.1363 12.5427 49.9603 12.5693 49.8003 12.58C49.6509 12.6013 49.5229 12.612 49.4163 12.612C48.9896 12.612 48.6643 12.516 48.4403 12.324C48.2163 12.132 48.0829 11.8973 48.0403 11.62L47.9923 11.188C47.6189 11.668 47.1603 12.036 46.6163 12.292C46.0829 12.5373 45.5336 12.66 44.9683 12.66C44.4029 12.66 43.9016 12.548 43.4643 12.324C43.0269 12.0893 42.6803 11.7747 42.4243 11.38C42.1789 10.9747 42.0563 10.5213 42.0563 10.02ZM47.2723 10.452C47.5389 10.196 47.6723 9.95067 47.6723 9.716V8.868C47.1176 8.644 46.5576 8.532 45.9923 8.532C45.4269 8.532 44.9683 8.65467 44.6163 8.9C44.2643 9.13467 44.0883 9.44933 44.0883 9.844C44.0883 10.164 44.2163 10.452 44.4723 10.708C44.7283 10.964 45.0963 11.092 45.5763 11.092C45.8963 11.092 46.2056 11.0333 46.5043 10.916C46.8136 10.7987 47.0696 10.644 47.2723 10.452ZM55.1515 8.308C55.1515 7.508 55.3115 6.77733 55.6315 6.116C55.9515 5.45467 56.3942 4.932 56.9595 4.548C57.5248 4.164 58.1702 3.972 58.8955 3.972C59.5142 3.972 60.0688 4.12667 60.5595 4.436C61.0608 4.73467 61.4502 5.11867 61.7275 5.588V0.82H63.8715V10.1C63.8715 10.3347 63.9088 10.5 63.9835 10.596C64.0582 10.6813 64.1862 10.7347 64.3675 10.756V12.5C63.9835 12.5747 63.6795 12.612 63.4555 12.612C63.0715 12.612 62.7515 12.516 62.4955 12.324C62.2502 12.132 62.1115 11.8813 62.0795 11.572L62.0475 11.044C61.7382 11.5667 61.3168 11.9667 60.7835 12.244C60.2608 12.5213 59.7115 12.66 59.1355 12.66C58.3568 12.66 57.6688 12.468 57.0715 12.084C56.4742 11.6893 56.0048 11.1667 55.6635 10.516C55.3222 9.85467 55.1515 9.11867 55.1515 8.308ZM61.7275 9.428V7.428C61.5568 6.95867 61.2635 6.56933 60.8475 6.26C60.4315 5.95067 60.0048 5.796 59.5675 5.796C59.1302 5.796 58.7462 5.91867 58.4155 6.164C58.0848 6.39867 57.8288 6.71333 57.6475 7.108C57.4662 7.492 57.3755 7.908 57.3755 8.356C57.3755 8.81467 57.4768 9.236 57.6795 9.62C57.8822 9.99333 58.1542 10.292 58.4955 10.516C58.8475 10.7293 59.2475 10.836 59.6955 10.836C60.1008 10.836 60.5008 10.7027 60.8955 10.436C61.3008 10.1693 61.5782 9.83333 61.7275 9.428ZM69.864 12.66C68.9573 12.66 68.1733 12.4627 67.512 12.068C66.8613 11.6733 66.3547 11.1507 65.992 10.5C65.6293 9.83867 65.448 9.124 65.448 8.356C65.448 7.56667 65.624 6.84133 65.976 6.18C66.3387 5.508 66.8507 4.97467 67.512 4.58C68.1733 4.17467 68.9627 3.972 69.88 3.972C70.7973 3.972 71.5813 4.17467 72.232 4.58C72.8827 4.97467 73.3787 5.50267 73.72 6.164C74.072 6.81467 74.248 7.51867 74.248 8.276C74.248 8.55333 74.232 8.79333 74.2 8.996H67.72C67.7733 9.64667 68.0133 10.1587 68.44 10.532C68.8773 10.9053 69.3787 11.092 69.944 11.092C70.3707 11.092 70.7707 10.9907 71.144 10.788C71.528 10.5747 71.7893 10.2973 71.928 9.956L73.768 10.468C73.4587 11.108 72.9627 11.636 72.28 12.052C71.5973 12.4573 70.792 12.66 69.864 12.66ZM67.672 7.636H72.056C71.992 7.00667 71.752 6.5 71.336 6.116C70.9307 5.72133 70.4347 5.524 69.848 5.524C69.272 5.524 68.776 5.72133 68.36 6.116C67.9547 6.5 67.7253 7.00667 67.672 7.636ZM87.6331 3.076H84.0011V12.5H81.8091V3.076H78.1771V1.14H87.6331V3.076ZM86.8844 10.02C86.8844 9.476 87.0337 9.00133 87.3324 8.596C87.6417 8.18 88.0684 7.86 88.6124 7.636C89.1564 7.412 89.7804 7.3 90.4844 7.3C90.8364 7.3 91.1937 7.332 91.5564 7.396C91.919 7.44933 92.2337 7.52933 92.5004 7.636V7.188C92.5004 6.65467 92.3404 6.244 92.0204 5.956C91.711 5.668 91.247 5.524 90.6284 5.524C90.1697 5.524 89.7324 5.604 89.3164 5.764C88.9004 5.924 88.463 6.15867 88.0044 6.468L87.3164 5.06C87.871 4.69733 88.4364 4.42533 89.0124 4.244C89.599 4.06267 90.2124 3.972 90.8524 3.972C92.047 3.972 92.975 4.27067 93.6364 4.868C94.3084 5.46533 94.6444 6.31867 94.6444 7.428V10.1C94.6444 10.3347 94.6817 10.5 94.7564 10.596C94.831 10.6813 94.9644 10.7347 95.1564 10.756V12.5C94.9644 12.5427 94.7884 12.5693 94.6284 12.58C94.479 12.6013 94.351 12.612 94.2444 12.612C93.8177 12.612 93.4924 12.516 93.2684 12.324C93.0444 12.132 92.911 11.8973 92.8684 11.62L92.8204 11.188C92.447 11.668 91.9884 12.036 91.4444 12.292C90.911 12.5373 90.3617 12.66 89.7964 12.66C89.231 12.66 88.7297 12.548 88.2924 12.324C87.855 12.0893 87.5084 11.7747 87.2524 11.38C87.007 10.9747 86.8844 10.5213 86.8844 10.02ZM92.1004 10.452C92.367 10.196 92.5004 9.95067 92.5004 9.716V8.868C91.9457 8.644 91.3857 8.532 90.8204 8.532C90.255 8.532 89.7964 8.65467 89.4444 8.9C89.0924 9.13467 88.9164 9.44933 88.9164 9.844C88.9164 10.164 89.0444 10.452 89.3004 10.708C89.5564 10.964 89.9244 11.092 90.4044 11.092C90.7244 11.092 91.0337 11.0333 91.3324 10.916C91.6417 10.7987 91.8977 10.644 92.1004 10.452ZM96.6319 0.82H98.7759V9.812C98.7759 10.2067 98.8399 10.468 98.9679 10.596C99.0959 10.724 99.2719 10.788 99.4959 10.788C99.6665 10.788 99.8425 10.7667 100.024 10.724C100.205 10.6813 100.365 10.628 100.504 10.564L100.792 12.196C100.504 12.3347 100.168 12.4413 99.7839 12.516C99.3999 12.5907 99.0532 12.628 98.7439 12.628C98.0719 12.628 97.5492 12.452 97.1759 12.1C96.8132 11.7373 96.6319 11.2253 96.6319 10.564V0.82Z" fill="#464646"/>
</svg>
